<svg width="49" height="56" viewBox="0 0 49 56" fill="none" xmlns="http://www.w3.org/2000/svg">
<g id="User 01c">
<path id="Combined Shape" d="M41.675 26.0267C43.5408 20.2792 44.6908 10.4533 36.845 3.73332C30.8489 -1.40246 14.65 -1.92001 9.01501 9.27999C8.07431 11.1496 9.36001 14.08 11.89 13.9733C12.8843 13.9307 13.5 16.8533 14.075 18.6667C13.27 26.0267 6.09815 26.1626 2.46001 31.7867C-2.02499 38.72 3.49501 48.96 16.72 48.96C29.945 48.96 37.5263 38.8064 41.675 26.0267Z" fill="url(#paint0_linear_359_211)"/>
<g id="Group 16">
<path id="Rectangle" d="M46.1601 42.8639C47.8467 45.877 48.6901 56.8532 48.6901 56.8532H1.31006C1.31006 56.8532 2.15347 45.877 3.84006 42.8639C6.37006 38.3442 25.0001 32.5332 25.0001 32.5332C25.0001 32.5332 43.6301 38.3442 46.1601 42.8639Z" fill="url(#paint1_linear_359_211)"/>
<path id="Mask" d="M30.5201 35.0932C30.5201 35.0932 27.5839 36.5866 24.8828 36.5866C22.1816 36.5866 19.48 35.0932 19.48 35.0932V30.3999C18.8989 30.4851 18.3103 30.5175 17.7224 30.4968C12.2051 30.4963 10.1248 23.0423 11.2 13.9732C11.89 13.9732 13.5 13.9732 15.8 10.9866C15.225 15.1466 21.895 14.5066 24.425 11.1999C23.16 15.1466 26.495 17.8132 29.3701 16.2132C35.0076 13.0757 36.2749 22.6401 30.5201 22.7199V35.0932Z" fill="url(#paint2_linear_359_211)"/>
<g id="Group 16_2">
<g id="Path 2" style="mix-blend-mode:multiply" opacity="0.782">
<path d="M19.4801 30.4C22.3332 29.9128 25.0633 28.9361 27.5301 27.52C27.5301 27.52 24.6551 32.1067 19.4801 32.1067V30.4Z" fill="#FFD7B8"/>
</g>
</g>
</g>
<g id="Group 9">
<path id="Combined Shape_2" d="M25.0076 36.3679C26.6698 36.2981 30.52 35.5429 30.52 33.9113V32.5332C30.9418 32.5332 32.1495 33.4574 32.7708 34.2399C35.2262 37.3332 32.5026 40.1065 30.2812 40.1065C27.4785 40.1065 25.621 37.9344 25 36.8895C24.379 37.9348 22.5215 40.1065 19.7187 40.1065C17.4974 40.1065 14.7737 37.3332 17.2292 34.2399C17.8504 33.4574 19.0582 32.5332 19.48 32.5332V33.9113C19.48 35.5429 23.4341 36.2981 25.0076 36.3679Z" fill="white"/>
</g>
<path id="Combined Shape_3" d="M24.08 50.8801C24.08 50.7113 24.1339 50.5463 24.235 50.406C24.3361 50.2657 24.4798 50.1563 24.6479 50.0917C24.816 50.0271 25.001 50.0102 25.1794 50.0431C25.3579 50.0761 25.5218 50.1573 25.6505 50.2767C25.7792 50.396 25.8668 50.5481 25.9023 50.7136C25.9378 50.8791 25.9196 51.0507 25.8499 51.2066C25.7803 51.3626 25.6624 51.4958 25.5111 51.5896C25.3598 51.6834 25.1819 51.7334 25 51.7334C24.756 51.7334 24.522 51.6435 24.3494 51.4835C24.1769 51.3234 24.08 51.1064 24.08 50.8801ZM24.08 46.6134C24.08 46.4446 24.1339 46.2797 24.235 46.1393C24.3361 45.999 24.4798 45.8896 24.6479 45.825C24.816 45.7604 25.001 45.7435 25.1794 45.7765C25.3579 45.8094 25.5218 45.8907 25.6505 46.01C25.7792 46.1294 25.8668 46.2814 25.9023 46.4469C25.9378 46.6125 25.9196 46.784 25.8499 46.94C25.7803 47.0959 25.6624 47.2292 25.5111 47.3229C25.3598 47.4167 25.1819 47.4667 25 47.4667C24.756 47.4667 24.522 47.3768 24.3494 47.2168C24.1769 47.0568 24.08 46.8397 24.08 46.6134ZM24.08 42.3467C24.08 42.178 24.1339 42.013 24.235 41.8727C24.3361 41.7323 24.4798 41.623 24.6479 41.5584C24.816 41.4938 25.001 41.4769 25.1794 41.5098C25.3579 41.5427 25.5218 41.624 25.6505 41.7433C25.7792 41.8627 25.8668 42.0147 25.9023 42.1803C25.9378 42.3458 25.9196 42.5174 25.8499 42.6733C25.7803 42.8292 25.6624 42.9625 25.5111 43.0563C25.3598 43.15 25.1819 43.2001 25 43.2001C24.756 43.2001 24.522 43.1102 24.3494 42.9501C24.1769 42.7901 24.08 42.5731 24.08 42.3467V42.3467Z" fill="url(#paint3_linear_359_211)"/>
</g>
<defs>
<linearGradient id="paint0_linear_359_211" x1="21.9829" y1="0.232178" x2="21.9829" y2="48.96" gradientUnits="userSpaceOnUse">
<stop stop-color="#130027"/>
<stop offset="1" stop-color="#130017"/>
</linearGradient>
<linearGradient id="paint1_linear_359_211" x1="25.0001" y1="56.8532" x2="25.0001" y2="32.5332" gradientUnits="userSpaceOnUse">
<stop stop-color="#E6864E"/>
<stop offset="1" stop-color="#E67240"/>
</linearGradient>
<linearGradient id="paint2_linear_359_211" x1="22.5958" y1="10.9866" x2="22.5958" y2="36.5866" gradientUnits="userSpaceOnUse">
<stop stop-color="#FFE0CC"/>
<stop offset="1" stop-color="#FFEADB"/>
</linearGradient>
<linearGradient id="paint3_linear_359_211" x1="25" y1="41.4934" x2="25" y2="51.7334" gradientUnits="userSpaceOnUse">
<stop stop-color="#130027"/>
<stop offset="1" stop-color="#130017"/>
</linearGradient>
</defs>
</svg>
